<mxfile host="app.diagrams.net" modified="2022-07-15T02:23:26.552Z" agent="5.0 (Windows NT 10.0; WOW64) AppleWebKit/537.36 (KHTML, like Gecko) Chrome/86.0.4240.198 Safari/537.36" etag="Qi5D66U8kF7iaEgpheLE" version="20.1.1" type="github">
  <diagram id="C5RBs43oDa-KdzZeNtuy" name="Page-1">
    <mxGraphModel dx="1096" dy="581" grid="1" gridSize="10" guides="1" tooltips="1" connect="1" arrows="1" fold="1" page="1" pageScale="1" pageWidth="827" pageHeight="1169" math="0" shadow="0">
      <root>
        <mxCell id="WIyWlLk6GJQsqaUBKTNV-0" />
        <mxCell id="WIyWlLk6GJQsqaUBKTNV-1" parent="WIyWlLk6GJQsqaUBKTNV-0" />
        <mxCell id="yychwE6PEftJ7kgopKk0-3" value="" style="edgeStyle=orthogonalEdgeStyle;rounded=0;orthogonalLoop=1;jettySize=auto;html=1;" edge="1" parent="WIyWlLk6GJQsqaUBKTNV-1" source="yychwE6PEftJ7kgopKk0-1" target="yychwE6PEftJ7kgopKk0-2">
          <mxGeometry relative="1" as="geometry" />
        </mxCell>
        <mxCell id="yychwE6PEftJ7kgopKk0-1" value="需求分析" style="whiteSpace=wrap;html=1;aspect=fixed;" vertex="1" parent="WIyWlLk6GJQsqaUBKTNV-1">
          <mxGeometry x="55" y="90" width="60" height="60" as="geometry" />
        </mxCell>
        <mxCell id="yychwE6PEftJ7kgopKk0-5" value="" style="edgeStyle=orthogonalEdgeStyle;rounded=0;orthogonalLoop=1;jettySize=auto;html=1;" edge="1" parent="WIyWlLk6GJQsqaUBKTNV-1" source="yychwE6PEftJ7kgopKk0-2" target="yychwE6PEftJ7kgopKk0-4">
          <mxGeometry relative="1" as="geometry" />
        </mxCell>
        <mxCell id="yychwE6PEftJ7kgopKk0-2" value="构件检索与分析" style="whiteSpace=wrap;html=1;aspect=fixed;" vertex="1" parent="WIyWlLk6GJQsqaUBKTNV-1">
          <mxGeometry x="195" y="90" width="60" height="60" as="geometry" />
        </mxCell>
        <mxCell id="yychwE6PEftJ7kgopKk0-14" value="" style="edgeStyle=orthogonalEdgeStyle;rounded=0;orthogonalLoop=1;jettySize=auto;html=1;" edge="1" parent="WIyWlLk6GJQsqaUBKTNV-1" source="yychwE6PEftJ7kgopKk0-4" target="yychwE6PEftJ7kgopKk0-13">
          <mxGeometry relative="1" as="geometry" />
        </mxCell>
        <mxCell id="yychwE6PEftJ7kgopKk0-4" value="设计体系结构" style="whiteSpace=wrap;html=1;aspect=fixed;" vertex="1" parent="WIyWlLk6GJQsqaUBKTNV-1">
          <mxGeometry x="369" y="90" width="60" height="60" as="geometry" />
        </mxCell>
        <mxCell id="yychwE6PEftJ7kgopKk0-16" value="" style="edgeStyle=orthogonalEdgeStyle;rounded=0;orthogonalLoop=1;jettySize=auto;html=1;" edge="1" parent="WIyWlLk6GJQsqaUBKTNV-1" source="yychwE6PEftJ7kgopKk0-13" target="yychwE6PEftJ7kgopKk0-15">
          <mxGeometry relative="1" as="geometry" />
        </mxCell>
        <mxCell id="yychwE6PEftJ7kgopKk0-13" value="复用与集成构件" style="whiteSpace=wrap;html=1;aspect=fixed;" vertex="1" parent="WIyWlLk6GJQsqaUBKTNV-1">
          <mxGeometry x="470" y="90" width="60" height="60" as="geometry" />
        </mxCell>
        <mxCell id="yychwE6PEftJ7kgopKk0-18" value="" style="edgeStyle=orthogonalEdgeStyle;rounded=0;orthogonalLoop=1;jettySize=auto;html=1;" edge="1" parent="WIyWlLk6GJQsqaUBKTNV-1" source="yychwE6PEftJ7kgopKk0-15" target="yychwE6PEftJ7kgopKk0-17">
          <mxGeometry relative="1" as="geometry" />
        </mxCell>
        <mxCell id="yychwE6PEftJ7kgopKk0-15" value="系统测试" style="whiteSpace=wrap;html=1;aspect=fixed;" vertex="1" parent="WIyWlLk6GJQsqaUBKTNV-1">
          <mxGeometry x="583" y="90" width="60" height="60" as="geometry" />
        </mxCell>
        <mxCell id="yychwE6PEftJ7kgopKk0-17" value="系统维护" style="whiteSpace=wrap;html=1;aspect=fixed;" vertex="1" parent="WIyWlLk6GJQsqaUBKTNV-1">
          <mxGeometry x="694" y="90" width="60" height="60" as="geometry" />
        </mxCell>
        <mxCell id="yychwE6PEftJ7kgopKk0-19" value="需求修改" style="rounded=0;whiteSpace=wrap;html=1;fillColor=#ffe6cc;strokeColor=#d79b00;" vertex="1" parent="WIyWlLk6GJQsqaUBKTNV-1">
          <mxGeometry x="325" y="180" width="85" height="40" as="geometry" />
        </mxCell>
        <mxCell id="yychwE6PEftJ7kgopKk0-21" value="" style="endArrow=classic;html=1;rounded=0;entryX=0;entryY=0.25;entryDx=0;entryDy=0;" edge="1" parent="WIyWlLk6GJQsqaUBKTNV-1">
          <mxGeometry width="50" height="50" relative="1" as="geometry">
            <mxPoint x="305" y="120" as="sourcePoint" />
            <mxPoint x="325" y="199" as="targetPoint" />
            <Array as="points">
              <mxPoint x="305" y="199" />
            </Array>
          </mxGeometry>
        </mxCell>
        <mxCell id="yychwE6PEftJ7kgopKk0-22" value="" style="endArrow=classic;html=1;rounded=0;exitX=1;exitY=0.5;exitDx=0;exitDy=0;" edge="1" parent="WIyWlLk6GJQsqaUBKTNV-1" source="yychwE6PEftJ7kgopKk0-19">
          <mxGeometry width="50" height="50" relative="1" as="geometry">
            <mxPoint x="485" y="210" as="sourcePoint" />
            <mxPoint x="349" y="120" as="targetPoint" />
            <Array as="points">
              <mxPoint x="455" y="200" />
              <mxPoint x="455" y="170" />
              <mxPoint x="349" y="170" />
            </Array>
          </mxGeometry>
        </mxCell>
        <mxCell id="yychwE6PEftJ7kgopKk0-30" value="面向构件的开发方法" style="swimlane;" vertex="1" parent="WIyWlLk6GJQsqaUBKTNV-1">
          <mxGeometry x="34" y="55" width="760" height="325" as="geometry">
            <mxRectangle x="34" y="55" width="150" height="30" as="alternateBounds" />
          </mxGeometry>
        </mxCell>
        <mxCell id="yychwE6PEftJ7kgopKk0-31" value="&lt;b style=&quot;font-size: 22px;&quot;&gt;&lt;font style=&quot;font-size: 22px;&quot;&gt;系统开发&lt;/font&gt;&lt;/b&gt;" style="text;html=1;align=center;verticalAlign=middle;whiteSpace=wrap;rounded=0;fontSize=22;fontColor=#FF0000;" vertex="1" parent="yychwE6PEftJ7kgopKk0-30">
          <mxGeometry x="600" y="130" width="110" height="30" as="geometry" />
        </mxCell>
        <mxCell id="yychwE6PEftJ7kgopKk0-32" value="&lt;b style=&quot;font-size: 22px;&quot;&gt;&lt;font style=&quot;font-size: 22px;&quot;&gt;构件开发与维护&lt;/font&gt;&lt;/b&gt;" style="text;html=1;align=center;verticalAlign=middle;whiteSpace=wrap;rounded=0;fontSize=22;fontColor=#FF0000;" vertex="1" parent="yychwE6PEftJ7kgopKk0-30">
          <mxGeometry x="560" y="230" width="110" height="30" as="geometry" />
        </mxCell>
        <mxCell id="yychwE6PEftJ7kgopKk0-24" value="构件库" style="shape=cylinder3;whiteSpace=wrap;html=1;boundedLbl=1;backgroundOutline=1;size=15;" vertex="1" parent="yychwE6PEftJ7kgopKk0-30">
          <mxGeometry x="136" y="215" width="60" height="80" as="geometry" />
        </mxCell>
        <mxCell id="yychwE6PEftJ7kgopKk0-26" value="" style="edgeStyle=orthogonalEdgeStyle;rounded=0;orthogonalLoop=1;jettySize=auto;html=1;" edge="1" parent="yychwE6PEftJ7kgopKk0-30" source="yychwE6PEftJ7kgopKk0-25">
          <mxGeometry relative="1" as="geometry">
            <mxPoint x="196" y="245" as="targetPoint" />
            <Array as="points">
              <mxPoint x="256" y="245" />
              <mxPoint x="256" y="245" />
            </Array>
          </mxGeometry>
        </mxCell>
        <mxCell id="yychwE6PEftJ7kgopKk0-25" value="开发新构件" style="rounded=0;whiteSpace=wrap;html=1;" vertex="1" parent="yychwE6PEftJ7kgopKk0-30">
          <mxGeometry x="276" y="225" width="120" height="30" as="geometry" />
        </mxCell>
        <mxCell id="yychwE6PEftJ7kgopKk0-28" value="" style="edgeStyle=orthogonalEdgeStyle;rounded=0;orthogonalLoop=1;jettySize=auto;html=1;" edge="1" parent="yychwE6PEftJ7kgopKk0-30" source="yychwE6PEftJ7kgopKk0-27">
          <mxGeometry relative="1" as="geometry">
            <mxPoint x="196" y="280" as="targetPoint" />
            <Array as="points">
              <mxPoint x="256" y="280" />
              <mxPoint x="256" y="280" />
            </Array>
          </mxGeometry>
        </mxCell>
        <mxCell id="yychwE6PEftJ7kgopKk0-27" value="购买新构件" style="rounded=0;whiteSpace=wrap;html=1;" vertex="1" parent="yychwE6PEftJ7kgopKk0-30">
          <mxGeometry x="276" y="270" width="120" height="30" as="geometry" />
        </mxCell>
        <mxCell id="yychwE6PEftJ7kgopKk0-33" value="" style="endArrow=none;dashed=1;html=1;dashPattern=1 3;strokeWidth=2;rounded=0;fontSize=22;fontColor=#FF0000;exitX=0;exitY=0.5;exitDx=0;exitDy=0;entryX=1;entryY=0.5;entryDx=0;entryDy=0;" edge="1" parent="WIyWlLk6GJQsqaUBKTNV-1">
          <mxGeometry width="50" height="50" relative="1" as="geometry">
            <mxPoint x="34" y="231.5" as="sourcePoint" />
            <mxPoint x="794" y="231.5" as="targetPoint" />
          </mxGeometry>
        </mxCell>
        <mxCell id="yychwE6PEftJ7kgopKk0-34" value="" style="shape=flexArrow;endArrow=classic;html=1;rounded=0;fontSize=22;fontColor=#FF0000;exitX=0.5;exitY=0;exitDx=0;exitDy=0;exitPerimeter=0;" edge="1" parent="WIyWlLk6GJQsqaUBKTNV-1" source="yychwE6PEftJ7kgopKk0-24">
          <mxGeometry width="50" height="50" relative="1" as="geometry">
            <mxPoint x="120" y="260" as="sourcePoint" />
            <mxPoint x="220" y="160" as="targetPoint" />
            <Array as="points">
              <mxPoint x="220" y="160" />
            </Array>
          </mxGeometry>
        </mxCell>
        <mxCell id="yychwE6PEftJ7kgopKk0-35" value="构件选取" style="edgeLabel;html=1;align=center;verticalAlign=middle;resizable=0;points=[];fontSize=13;fontColor=#000000;" vertex="1" connectable="0" parent="yychwE6PEftJ7kgopKk0-34">
          <mxGeometry x="0.536" y="-3" relative="1" as="geometry">
            <mxPoint x="-28" y="29" as="offset" />
          </mxGeometry>
        </mxCell>
      </root>
    </mxGraphModel>
  </diagram>
</mxfile>
